<?xml version="1.0" encoding="utf-8"?>
<!-- Generator: Adobe Illustrator 22.0.0, SVG Export Plug-In . SVG Version: 6.00 Build 0)  -->
<svg version="1.1" id="Layer_1" xmlns="http://www.w3.org/2000/svg" xmlns:xlink="http://www.w3.org/1999/xlink" x="0px" y="0px"
	 viewBox="0 0 909 129" style="enable-background:new 0 0 909 129;" xml:space="preserve">
<style type="text/css">
	.st0{fill:#010101;}
	.st1{fill:#030303;}
	.st2{fill:#020202;}
	.st3{fill:#F9FBFD;}
	.st4{fill:#F6F9FC;}
	.st5{fill:#FAFBFD;}
	.st6{fill:#F8FAFC;}
	.st7{fill:#0276BA;}
	.st8{fill:#44BBFD;}
	.st9{fill:#0176B9;}
	.st10{fill:#0076B9;}
	.st11{fill:#0277BA;}
	.st12{fill:#0478BA;}
</style>
<g>
	<g>
		<path class="st0" d="M896.1,7.7C890.9,4.4,884.7,2.5,879,0c-48,0-96,0-144,0c0,43,0,86,0,129c18,0,36,0,54,0c0-24.7,0-49.5,0-74.6
			c1.2-0.2,2.4-0.3,4-0.4c0,25.2,0,50.1,0,75c19,0,38,0,57,0c0-24.6,0-49.1,0-73.9c3.9,0.7,4,3.2,4,6c0,22.7,0,45.3,0,67.9
			c18.3,0,36.7,0,55,0c0-33.3,0-66.7,0-100C906.7,20.7,903.7,12.5,896.1,7.7z M904,119.7c0,1.6,0,3.2,0,5.1c-15.4,0-30.4,0-46,0
			c0-6.3,0-12.6,0-18.9c0-14.7,0-29.3,0-44c0-9.9-1.1-11-11.8-10.8c0,24.5,0,49,0,73.7c-16.7,0-32.7,0-49.1,0c0-24.5,0-48.7,0-73.4
			c-4,0-7.7,0-11.9,0c0,24.2,0,48.6,0,73.3c-15.5,0-30.6,0-46.1,0c0-40.2,0-80.2,0-120.5c1.5-0.1,3-0.2,4.4-0.2c42.5,0,85,0,127.5,0
			c9.6,0,17.9,3.2,24.9,9.8c5.4,5.1,8.4,10.9,8.3,18.9C903.7,61.7,904,90.7,904,119.7z"/>
		<path class="st0" d="M118,129c0-24.8,0-49.6,0-74.7c-21.6,0-43,0-65,0c0,24.9,0,49.8,0,74.7c-17.6,0-35.3,0-53,0
			C0,86.1,0,43.2,0,0c48.6,0,97.3,0,146,0c0.2,0.3,0.3,0.7,0.5,0.8c15.3,1.6,27.1,17.5,26.7,33.9c-0.7,31.4-0.2,62.9-0.2,94.3
			C154.6,129,136.3,129,118,129z M48.8,50.1c22.4,0,44.2-0.1,65.9,0.1c4.4,0,7.2,3.6,7.2,8.3c0,20.3,0,40.7,0,61c0,1.8,0,3.5,0,5.2
			c16,0,31.4,0,47,0c0-30.8-0.5-61.3,0.2-91.7c0.3-12.2-14.6-29.1-29.5-29C96,4.1,52.3,4,8.7,4C7.2,4,5.8,4,4.2,4
			c0,40.5,0,80.6,0,120.8c15,0,29.7,0,44.7,0C48.8,100,48.8,75.3,48.8,50.1z"/>
		<path class="st1" d="M620,0c0,23.8,0,47.7,0,71.5c0,6.4,1,7.5,7.5,7.5c14.2,0,28.3,0,42.5,0c5.8,0,7-1.2,7-7c0-24,0-48,0-72
			c18.7,0,37.3,0,56,0c0,30.8,0,61.5,0,92.3c0,13.3-5.4,23.8-16.4,31.3c-3.2,2.2-7,3.6-10.6,5.4c-40.3,0-80.7,0-121,0
			c-19.8-7.6-27.5-22.6-27.1-43.2C558.3,57.2,558,28.6,558,0C578.6,0,599.3,0,620,0z M681,4.1c0,23.4,0,46.4,0,69.4
			c0,6.5-2.8,9.4-9.3,9.5c-15.7,0.1-31.3,0.1-47,0c-5.8,0-8.7-3.2-8.7-9.1c0-21.7,0-43.3,0-65c0-1.6,0-3.2,0-4.6
			c-18.4,0-36.1,0-54,0c0,27.3-0.1,54.3,0.1,81.3c0,5.6,0.8,11.2,2,16.7c2.4,11.2,16.6,22.8,27.5,22.8c36,0,72,0,108-0.1
			c14.2,0,29.4-15.3,29.4-29.5c0-29,0-58,0-87c0-1.4-0.1-2.9-0.2-4.4C712.8,4.1,697.2,4.1,681,4.1z"/>
		<path class="st0" d="M202,0c49,0,98,0,147,0c0,17.3,0,34.5,0,52.2c-10.7,0-20.8,0-30.7,0c0,9.2,0,17.9,0,27c10.4,0,20.5,0,30.7,0
			c0,16.9,0,33.3,0,49.8c-58,0-116,0-174,0c0-32.6,0-65.1,0-97.7c0-8.2,3.4-15,8.8-21.1C188.7,4.7,195.4,2.5,202,0z M314.3,83
			c0-12,0-23.4,0-35.2c10.4,0,20.4,0,30.4,0c0-14.8,0-29.2,0-43.8c-4.3,0-8.3,0-12.2,0c-40.3,0-80.7,0-121,0
			c-17.1,0-32.9,16.3-32.6,32.5c0.5,27.7,0.1,55.3,0.1,83c0,1.8,0,3.5,0,5.3c55.6,0,110.7,0,165.7,0c0-14,0-27.8,0-41.7
			C334.4,83,324.5,83,314.3,83z"/>
		<path class="st2" d="M410,0c0,24.1,0,48.3,0,72.4c0,5.9,1.8,7.6,7.7,7.6c25.3,0,50.6,0,75.9,0c1.6,0,3.3,0,5.4,0
			c0,16.5,0,32.8,0,49c-40.3,0-80.7,0-121,0c-1.8-0.9-3.6-2.1-5.5-2.8c-14.4-5.6-21.5-15.6-21.5-30.8c0-31.8,0-63.6,0-95.4
			C370.6,0,390.3,0,410,0z M355,4.1c0,30.1-0.1,59.7,0.1,89.4c0,4.3,1.2,9,3.3,12.8c6.8,12.5,17.7,18.7,31.9,18.7
			c34,0.1,68,0,101.9,0c1.3,0,2.5-0.2,3.5-0.3c0-13.8,0-27.2,0-40.7c-27.2,0-54,0-80.8,0c-7.2,0-8.9-1.6-8.9-8.6
			c0-22.2,0-44.3,0-66.5c0-1.6,0-3.2,0-4.8C388.7,4.1,372.1,4.1,355,4.1z"/>
		<path d="M500,129c0-43,0-86,0-129c18.7,0,37.3,0,56,0c0,43,0,86,0,129C537.3,129,518.6,129,500,129z M551.7,124.9
			c0-40.5,0-80.6,0-120.6c-16,0-31.8,0-47.4,0c0,40.4,0,80.4,0,120.6C520.2,124.9,535.8,124.9,551.7,124.9z"/>
		<path class="st3" d="M895.9,13.8C889,7.2,880.6,4,871,4c-42.5,0-85,0-127.5,0c-1.5,0-2.9,0.1-4.4,0.2c0,40.3,0,80.3,0,120.5
			c15.5,0,30.6,0,46.1,0c0-24.7,0-49.1,0-73.3c4.2,0,7.9,0,11.9,0c0,24.7,0,48.9,0,73.4c16.4,0,32.5,0,49.1,0c0-24.7,0-49.2,0-73.7
			C856.9,50.9,858,52,858,61.9c0,14.7,0,29.3,0,44c0,6.3,0,12.6,0,18.9c15.6,0,30.6,0,46,0c0-1.8,0-3.5,0-5.1c0-29-0.2-58,0.2-87
			C904.3,24.6,901.3,18.9,895.9,13.8z M838.7,115.6c-11.4,0-22.8,0-34.6,0c0-21.6,0-42.7,0-64.2c11.6,0,22.9,0,34.6,0
			C838.7,72.7,838.7,94,838.7,115.6z M899,114.3c0,1.4,0,2.9,0,4.6c-11.1,0-21.9,0-33.1,0c0-1.6,0-3.1,0-4.5c0-20-0.1-40-0.1-60
			c0-6.5-4-11.2-10.5-11.2c-25.3-0.2-50.6-0.1-76.7-0.1c0,25.5,0,50.4,0,75.8c-10.9,0-21.5,0-32.4,0c0-36.4,0-72.8,0-109.6
			c1.8,0,3.4,0,5,0c34.9,0,69.9-0.1,104.9,0.1c11,0,21.9,0.9,31.4,7.4c7.2,4.9,11.7,11.2,11.6,20.5C898.9,63,899,88.6,899,114.3z"/>
		<path class="st4" d="M48.8,50.1c0,25.2,0,49.8,0,74.7c-15,0-29.7,0-44.7,0c0-40.2,0-80.3,0-120.8c1.6,0,3.1,0,4.5,0
			c43.7,0,87.3,0.1,131,0c15,0,29.8,16.9,29.5,29c-0.7,30.5-0.2,60.9-0.2,91.7c-15.6,0-31,0-47,0c0-1.7,0-3.5,0-5.2
			c0-20.3,0-40.7,0-61c0-4.7-2.7-8.3-7.2-8.3C93,50.1,71.2,50.1,48.8,50.1z M163,119.8c0.1-0.9,0.3-1.5,0.3-2.2c0-26.7,0-53.3,0-80
			c0-9-4.6-15.4-11.8-20.1c-9-5.9-19.2-7.3-29.5-7.3C86,10,50,10.1,14,10.1c-1.3,0-2.6,0.2-3.9,0.2c0,36.7,0,73.1,0,109.3
			c11.1,0,21.8,0,32.9,0c0-25.3,0-50.3,0-75.6c25.7,0,51-0.2,76.3,0.1c6.9,0.1,10.6,4.8,10.6,11.9c0,19.5,0,39,0,58.5
			c0,1.8,0,3.5,0,5.2C141.4,119.8,152.1,119.8,163,119.8z"/>
		<path class="st5" d="M681,4.1c16.2,0,31.8,0,47.8,0c0.1,1.5,0.2,3,0.2,4.4c0,29,0,58,0,87c0,14.2-15.2,29.4-29.4,29.5
			c-36,0.1-72,0.1-108,0.1c-10.9,0-25.1-11.6-27.5-22.8c-1.2-5.5-1.9-11.1-2-16.7c-0.2-27-0.1-54-0.1-81.3c17.9,0,35.6,0,54,0
			c0,1.4,0,3,0,4.6c0,21.7,0,43.3,0,65c0,5.8,2.9,9,8.7,9.1c15.7,0.1,31.3,0.1,47,0c6.6,0,9.3-3,9.3-9.5C681,50.5,681,27.5,681,4.1z
			 M689,10.2c0,2.2,0,4,0,5.8c0,20.5,0,41,0,61.5c0,7.9-3.5,11.6-11.5,11.7c-19.5,0.1-38.9,0-58.4-0.1c-6.9,0-11.1-4.4-11.1-11.2
			c0-20.8,0-41.6,0-62.5c0-1.7,0-3.5,0-5.2c-13.4,0-26,0-39,0c0,1.8,0,3.5,0,5.1c0,24.8-0.1,49.6,0.1,74.5c0.1,7.9,2.9,14.8,9,20.2
			c8.6,7.6,19.2,9.8,30.1,9.9c25.7,0.3,51.3,0.3,77,0c9-0.1,17.8-1.8,25.7-6.8c7.2-4.5,11.5-10.2,11.4-19.4c-0.4-26-0.1-52-0.1-78
			c0-1.8,0-3.6,0-5.5C710.8,10.2,700.2,10.2,689,10.2z"/>
		<path class="st6" d="M314.3,83c10.2,0,20.2,0,30.4,0c0,14,0,27.7,0,41.7c-55,0-110.1,0-165.7,0c0-1.7,0-3.5,0-5.3
			c0-27.7,0.4-55.3-0.1-83C178.5,20.3,194.3,4,211.4,4c40.3,0.1,80.7,0,121,0c4,0,8,0,12.2,0c0,14.6,0,29,0,43.8c-10,0-20,0-30.4,0
			C314.3,59.6,314.3,71,314.3,83z M222.9,40.7c39.1,0,77.5,0,115.7,0c0-10.3,0-20,0-29.7c-41.3,0-82.3-0.2-123.3,0.1
			C198,11.2,186,24.2,186,41.3c0,24.3,0,48.6,0,73c0,1.8,0,3.5,0,5.4c51.3,0,102,0,152.6,0c0-10.2,0-20,0-30.4
			c-38.8,0-77.2,0-115.7,0C222.9,73.1,222.9,57.3,222.9,40.7z M307.8,50.4c-25.2,0-49.9,0-74.5,0c0,10,0,19.6,0,29.2
			c25,0,49.7,0,74.5,0C307.8,69.7,307.8,60.3,307.8,50.4z"/>
		<path class="st3" d="M355,4.1c17.2,0,33.8,0,51,0c0,1.6,0,3.2,0,4.8c0,22.2,0,44.3,0,66.5c0,7.1,1.6,8.6,8.9,8.6
			c26.8,0,53.6,0,80.8,0c0,13.5,0,26.9,0,40.7c-0.9,0.1-2.2,0.3-3.5,0.3c-34,0-68,0.1-101.9,0c-14.2,0-25.1-6.2-31.9-18.7
			c-2-3.8-3.2-8.5-3.3-12.8C354.8,63.9,355,34.2,355,4.1z M361.9,10.2c0,2.2,0,3.9,0,5.5c0,25.2,0.1,50.3,0,75.5
			c-0.1,9.8,4.3,16.8,12.3,21.9c8.1,5.2,17.3,6.8,26.6,6.9c27.7,0.2,55.3,0.1,83,0.1c1.4,0,2.9-0.2,4.7-0.3c0-9.4,0-18.5,0-27.7
			c-1.5-0.1-2.6-0.3-3.8-0.3c-17.3-0.2-34.6-0.3-51.9-0.5c-7-0.1-14,0-21-0.1c-8.2-0.2-12.5-4.3-12.9-12.4c-0.1-2-0.2-4-0.2-6
			c0-19.3,0-38.7,0-58c0-2.1,0.5-4.5-2.9-4.5C384.5,10.2,373.4,10.2,361.9,10.2z"/>
		<path class="st3" d="M551.7,124.9c-15.9,0-31.5,0-47.4,0c0-40.2,0-80.2,0-120.6c15.7,0,31.4,0,47.4,0
			C551.7,44.3,551.7,84.4,551.7,124.9z M512.2,10.4c0,36.9,0,73.1,0,109.2c11.2,0,22.1,0,33,0c0-36.6,0-72.8,0-109.2
			C534,10.4,523.2,10.4,512.2,10.4z"/>
		<path class="st7" d="M887.5,16.7c-9.5-6.5-20.5-7.3-31.4-7.4c-34.9-0.2-69.9-0.1-104.9-0.1c-1.6,0-3.2,0-5,0
			c0,36.9,0,73.2,0,109.6c10.8,0,21.4,0,32.4,0c0-25.2,0-50.2,0-75.7c26.1,0,51.4-0.1,76.7,0c6.5,0,10.5,4.7,10.5,11.2
			c0.1,20,0.1,40,0.1,60c0,1.4,0,2.9,0,4.5c11.2,0,21.9,0,33.1,0c0-1.7,0-3.1,0-4.6c0-25.7-0.1-51.3,0.1-77
			C899.2,27.9,894.7,21.6,887.5,16.7z"/>
		<path class="st8" d="M804.1,115.6c0-21.6,0-42.7,0-64.2c11.5,0,22.9,0,34.6,0c0,21.3,0,42.6,0,64.2
			C827.3,115.6,815.9,115.6,804.1,115.6z"/>
		<path class="st9" d="M163,119.8c-10.9,0-21.6,0-33.1,0c0-1.7,0-3.5,0-5.2c0-19.5,0-39,0-58.5c0-7-3.7-11.8-10.6-11.9
			C94,43.9,68.7,44.1,43,44.1c0,25.3,0,50.2,0,75.6c-11.1,0-21.8,0-32.9,0c0-36.3,0-72.6,0-109.3c1.3-0.1,2.6-0.2,3.9-0.2
			c36,0,72-0.1,108,0.1c10.3,0,20.5,1.4,29.5,7.3c7.2,4.8,11.8,11.1,11.8,20.1c0,26.7,0,53.3,0,80
			C163.3,118.2,163.2,118.9,163,119.8z"/>
		<path class="st10" d="M689,10.2c11.3,0,21.9,0,33,0c0,2,0,3.7,0,5.5c0,26-0.3,52,0.1,78c0.2,9.3-4.2,14.9-11.4,19.4
			c-7.8,4.9-16.7,6.7-25.7,6.8c-25.7,0.3-51.3,0.3-77,0c-10.9-0.1-21.5-2.3-30.1-9.9c-6.1-5.4-9-12.3-9-20.2
			C568.8,65,569,40.2,569,15.3c0-1.6,0-3.2,0-5.1c13,0,25.6,0,39,0c0,1.7,0,3.4,0,5.2c0,20.8,0,41.6,0,62.5
			c0,6.7,4.3,11.1,11.1,11.2c19.5,0.1,38.9,0.2,58.4,0.1c8,0,11.5-3.7,11.5-11.7c0-20.5,0-41,0-61.5C689,14.2,689,12.4,689,10.2z"/>
		<path class="st9" d="M222.9,40.7c0,16.6,0,32.4,0,48.6c38.5,0,76.9,0,115.7,0c0,10.4,0,20.2,0,30.4c-50.6,0-101.3,0-152.6,0
			c0-1.9,0-3.6,0-5.4c0-24.3,0-48.6,0-73c0-17.1,12.1-30.1,29.4-30.3c41-0.3,81.9-0.1,123.3-0.1c0,9.7,0,19.5,0,29.7
			C300.3,40.7,262,40.7,222.9,40.7z"/>
		<path class="st8" d="M307.8,50.4c0,9.9,0,19.3,0,29.2c-24.8,0-49.5,0-74.5,0c0-9.6,0-19.2,0-29.2
			C257.9,50.4,282.6,50.4,307.8,50.4z"/>
		<path class="st11" d="M361.9,10.2c11.5,0,22.6,0,33.8,0c3.4,0,2.9,2.4,2.9,4.5c0,19.3,0,38.7,0,58c0,2,0.1,4,0.2,6
			c0.5,8.1,4.7,12.2,12.9,12.4c7,0.1,14,0.1,21,0.1c17.3,0.1,34.6,0.3,51.9,0.5c1.1,0,2.3,0.2,3.8,0.3c0,9.3,0,18.3,0,27.7
			c-1.8,0.1-3.2,0.3-4.7,0.3c-27.7,0-55.3,0.1-83-0.1c-9.4-0.1-18.5-1.7-26.6-6.9c-8-5.1-12.4-12.1-12.3-21.9
			c0.1-25.2,0-50.3,0-75.5C361.9,14.1,361.9,12.4,361.9,10.2z"/>
		<path class="st12" d="M512.2,10.4c11,0,21.8,0,33,0c0,36.4,0,72.6,0,109.2c-10.8,0-21.7,0-33,0C512.2,83.5,512.2,47.3,512.2,10.4z
			"/>
	</g>
</g>
</svg>
